<svg xmlns="http://www.w3.org/2000/svg" viewBox="0 0 1165.9 309.7"><style>.st0{fill:#c5119e}</style><path class="st0" d="M129.1 98.8c-.4 0-.8-.1-1.2-.3-3.5-2.1-6.2-5.5-7.4-9.4-1.2-3.9-.9-8.3.9-12 .5-1.2 1.9-1.7 3.1-1.1 1.2.5 1.7 1.9 1.1 3.1-1.2 2.7-1.5 5.8-.6 8.6s2.8 5.3 5.3 6.8c1.1.7 1.5 2.1.8 3.2-.4.7-1.2 1.1-2 1.1z"/><path class="st0" d="M132.6 54.1c-1.8-.9-4.3-2-5.1.5-1.4 4.3 6.6 7.3 8 10.6 1.1 2.5 0 5.6-1.9 7.6-1.6 1.6-3.6 2.7-5.7 3.6v-.5c.1-.3.4-.6.7-.8 1.8-1.6 2.9-4.2 2.7-6.7v-.1c-.2-1.8-2.5-2.5-3-.4-.6 2.4-.2 6.3-3.3 6.9.7-2 .4-4.4-.4-6.5-1-2.6-2.7-4.8-3.8-7.4-.7-1.7-1.3-3.5-1.3-5.3 0-.4 0-.9-.2-1.3-.3-.4-.8-.5-1.3-.3-1.2.3-2.4 1.5-3.1 2.4-.9 1.1-1.6 2.3-1.9 3.6-.9 3.4-.1 7.2 1.9 10.2 1.1 1.7 2.9 2.9 4.9 4-.4.2-.6.8-.5 1.3.2 1.4 1.4 3.1 1.9 4.4.2.6.5 1.2 1.1 1.4.6.3 1.2.2 1.9 0 2.1-.6 4.9-2.2 5.8-4.3 2.8-.3 5.5-1.5 7.4-3.5 6.1-6.4 2.4-15.7-4.8-19.4z"/><path class="st0" d="M122.8 62.1c.9 1.7 2 3.4 2.6 5.3.3.8.6 1.8.6 2.7.1.9-.2 1.7.2 2.6 1.3-1.2 1.6-3.1 1.2-4.8-.5-2.1-1.9-3.7-2.7-5.6-.3-.7-1.5-3.6.4-3.1.3.1.6.3.9.6 1.3 1.1 2.5 2.3 3.7 3.5 1.2 1.3 2.3 2.7 2.6 4.4.2 1.6-.4 3.2-1.2 4.6.7.3 1.6-.2 2.1-.8 1-1.2 1.5-2.8 1.4-4.3-.1-1.5-.8-3-2-4.1-1-.9-2.4-1.5-3.5-2.4-1.7-1.4-2.7-3.7-2.5-6 .1-.6.2-1.4-.2-1.9-.4-.6-1.2-.7-1.8-.6-1.9.4-3.3 2.4-3.4 4.3-.1 2 .7 3.9 1.6 5.6z"/><path class="st0" d="M127.8 62.7c-.2-.2-.4-.4-.7-.5-.3-.1-.6 0-.8.2-.1.2-.1.5-.1.7.2 1 .7 2.5 1.6 3.1 1.3.9 1.5-.8 1.1-1.7-.3-.7-.6-1.3-1.1-1.8zM53.2 196.3c-1.2 0-2.3-1-2.3-2.2-.4-6.2 1.7-12.6 5.6-17.5 3.9-4.9 9.7-8.2 15.9-9.2 1.3-.2 2.5.7 2.7 1.9.2 1.3-.7 2.5-1.9 2.7-5.1.8-9.8 3.5-13 7.5-3.2 4-4.9 9.2-4.6 14.3.1 1.3-.9 2.4-2.2 2.5h-.2z"/><path class="st0" d="M52.5 235.4c-3.3.3-7.7.3-7.4-3.9.5-7.4 14.4-7 18.4-11.2 3.1-3.2 3.4-8.4 1.7-12.5-1.4-3.4-3.8-6.2-6.4-8.8-.1.2-.2.5-.2.7 0 .6.3 1.1.6 1.7 1.8 3.5 1.8 8.1.1 11.7v.1c-1.3 2.6-5.2 2.2-4.7-1.2.6-4 3.5-9.7-.8-12.3-.1 3.5-2 6.9-4.5 9.5-3.1 3.3-6.9 5.6-10.1 8.8-2.1 2.1-4.1 4.5-5.2 7.2-.3.7-.5 1.4-1.1 1.8-.7.4-1.6.2-2.2-.3-1.6-1.2-2.6-3.7-3.2-5.5-.7-2.1-1-4.4-.7-6.6.7-5.7 4.3-10.9 9-14.2 2.7-1.8 6.1-2.6 9.7-3-.5-.6-.4-1.6 0-2.2 1.2-2 3.9-3.8 5.5-5.4.7-.7 1.5-1.4 2.5-1.5 1-.1 2 .5 2.8 1.1 2.8 2.1 6 6.2 6.1 9.9 4 2.1 7.3 5.5 9 9.7 5.3 13.3-5.9 25.2-18.9 26.4z"/><path class="st0" d="M42.6 217.5c2.5-2 5-4 7.1-6.4.9-1.1 1.9-2.4 2.6-3.7.7-1.3.7-2.7 1.8-3.8 1.2 2.6.5 5.7-1.1 8-1.9 2.8-5.1 4.4-7.4 6.8-.9.9-4.4 4.6-1.3 4.9.6.1 1.1-.1 1.7-.3 2.6-.9 5.1-1.9 7.6-3.1 2.5-1.2 5.1-2.6 6.5-5 1.3-2.3 1.3-5 .9-7.6 1.3-.1 2.3 1.3 2.7 2.5.8 2.4.6 5.1-.5 7.3-1.1 2.3-3.1 4.1-5.4 5-2.1.8-4.5.8-6.6 1.5-3.5 1.1-6.3 4-7.4 7.5-.3 1-.5 2.2-1.4 2.7-.9.6-2.2.3-3.1-.2-2.7-1.7-3.5-5.5-2.5-8.6 1-3.1 3.4-5.5 5.8-7.5z"/><path class="st0" d="M50.4 219.6c-.4.2-.9.4-1.4.3s-1-.3-1.1-.8c-.1-.4.1-.8.3-1.1.9-1.4 2.6-3.3 4.3-3.7 2.5-.6 1.7 2.1.6 3.2-.7.9-1.7 1.6-2.7 2.1z"/><linearGradient id="SVGID_1_" gradientUnits="userSpaceOnUse" x1="64.448" y1="196.954" x2="608.786" y2="196.954"><stop offset=".387" stop-color="#c5119e"/><stop offset=".403" stop-color="#b41090"/><stop offset=".449" stop-color="#8a0c6f"/><stop offset=".499" stop-color="#650951"/><stop offset=".552" stop-color="#450638"/><stop offset=".61" stop-color="#2c0423"/><stop offset=".674" stop-color="#180214"/><stop offset=".747" stop-color="#0a0108"/><stop offset=".838" stop-color="#020002"/><stop offset="1"/></linearGradient><path d="M367.2 302c-23.2 0-46.8-4.6-68.6-15.9-39-20.2-61-58.2-82.3-94.9-10.2-17.5-19.8-34.1-31.1-48.8-12.8-16.7-25.8-28-39.6-34.6-16.8-8-35.2-8.7-49.4-1.7-15.4 7.5-24.9 25.1-21.7 40.1l.3 1.2c.5-.7 1.1-1.4 1.7-2.1 5.4-6.1 12.5-11.8 24.4-7.8 4.7 1.6 8.3 5.5 9.9 10.6 1.8 5.6.8 11.8-2.4 16.2-5.8 7.8-17.7 10.3-27.2 5.6-1-.5-1.9-1-2.9-1.7 0 1.3.2 2.6.4 4 1.2 8 4.8 15.8 8.3 23.2 1.1 2.3.1 5.1-2.3 6.2-2.4 1.1-5.1.1-6.2-2.3-3.6-7.7-7.7-16.5-9-25.8-.7-5.1-.6-10 .4-14.5-2-3.3-3.5-7-4.3-11-4.4-19.3 7.1-41 26.4-50.4 16.7-8.1 38.2-7.5 57.5 1.7 15.2 7.3 29.3 19.5 43 37.4 11.7 15.2 21.9 32.8 31.7 49.8 20.6 35.6 42 72.4 78.6 91.3 53.9 27.9 119.2 12.3 162.4-11.6 30.2-16.7 55-38.4 71.8-62.5 5.8-8.4 18.2-30.6 23-50.3-9.4 2.4-17.2 1.6-23.4-2.2-9.6-6-12.9-19.7-7.1-29.5 5.8-9.7 19.5-13.3 29.3-7.7 6 3.4 10 8.9 11.6 16.3.6 2.8.9 5.8.9 8.9 11.4-5.7 21.5-14.3 28.9-24.8 1.5-2.1 4.4-2.6 6.5-1.1 2.1 1.5 2.6 4.4 1.1 6.5-9.4 13.3-22.6 23.8-37.5 30.1-4.2 24.1-20.2 51.5-25.6 59.2-17.6 25.4-43.6 48-75 65.4-27.9 15.4-64.8 27.5-102.5 27.5zM79.9 157.3c1.6 1.8 3.3 3.2 5.3 4.2 5.4 2.7 12.4 1.4 15.5-2.8 1.5-2 1.9-5.1 1-7.8-.7-2.3-2.2-3.9-4-4.6-5.7-1.9-9.2-.7-14.3 5.1-1.5 1.7-2.7 3.7-3.5 5.9zm468.7-36.7c-4.3 0-8.8 2.2-11 5.8-3.2 5.3-1.2 13.4 4.1 16.7 4.7 2.9 11.5 2.9 20.2-.1.3-3.9.2-7.6-.5-10.8-1.1-4.8-3.4-8.1-7.1-10.2-1.7-.9-3.7-1.4-5.7-1.4z" fill="url(#SVGID_1_)"/><path class="st0" d="M265.8 259.9c-.5 0-1-.2-1.5-.5-21.7-17.2-37.8-40.7-53.4-63.5-19.7-28.8-38.2-56-67.3-71.9-16.4-9-33-11.8-46.8-7.8C83.6 120 70.2 130 72 146.9c.1 1.3-.8 2.4-2.1 2.6-1.2.1-2.4-.8-2.6-2.1-1.8-16.5 9-30.2 28.1-35.7 15-4.3 32.9-1.4 50.3 8.2 30 16.5 49.8 45.4 68.9 73.4 15.4 22.5 31.2 45.7 52.4 62.5 1 .8 1.2 2.3.4 3.3-.2.5-.9.8-1.6.8z"/><path class="st0" d="M109.7 242.5c-.8 0-1.5-.4-2-1.1-12-19.1-20.9-39.8-26.6-61.5-1.5-5.7-3-12.4-1.9-19 1.2-7.5 6-13.7 12.2-15.6 3.7-1.2 8.2-.6 11.6 1.6 3.1 2 5 4.8 5.4 8.1.2 1.3-.8 2.4-2 2.6-1.3.2-2.5-.8-2.6-2-.2-1.9-1.4-3.5-3.2-4.7-2.3-1.5-5.3-1.9-7.7-1.1-4.5 1.5-8 6.1-9 12-1 5.7.4 11.8 1.8 17.1 5.6 21.3 14.3 41.6 26 60.2.7 1.1.4 2.5-.7 3.2-.4.1-.9.2-1.3.2z"/><path class="st0" d="M155.7 308.8c.3 1 1.7 1.2 2.2.3 6.6-12.5 8.4-27.4 5-41.1-3.7-14.6-13.3-27.7-26.2-35.5-7.4-4.5-15.6-7.2-23.1-11.5-5.1-2.9-10-6.8-13.2-11.6-.8-1.2-2.5-.4-2.2 1 1.5 5.9 4.4 11.1 8.1 16.6 4.7 7.1 9.7 14.6 10.8 22.9.2 1.1-1.1 1.9-2 1.2-11.9-9.5-19.8-24.4-26-38.7-.5-1.1-2.1-.9-2.3.3-2.3 13.5 1.6 28.6 10.8 38.6 8.6 9.3 20.8 14.5 30.8 22.2 12.3 9.2 22.8 20.8 27.3 35.3zm2.3-114.6c-2.2 0-4.4-.3-6.5-.9-8.6-2.5-15.7-10.1-18.2-19.4-2.2-8.2-1.1-17.3 3.2-25.7 6.9-13.6 21.1-22.2 35.2-21.4 15.4.8 27 18 34.6 29.3 1.4 2.1.9 5.1-1.3 6.5-2.1 1.4-5.1.9-6.5-1.3-6.6-9.8-16.6-24.6-27.3-25.2-10.3-.5-21.1 6.1-26.3 16.3-3.2 6.2-4.1 13.1-2.5 19 1.7 6.2 6.3 11.2 11.8 12.9 5.6 1.6 12.1-.6 14.9-5.1 1.4-2.2 1.8-5.2 1.1-8-.6-2.5-2-4.6-3.9-5.7-2.2-1.3-2.9-4.2-1.6-6.4 1.3-2.2 4.2-2.9 6.4-1.6 4.1 2.5 7 6.6 8.1 11.6 1.3 5.3.4 10.8-2.3 15.2-3.9 6.1-11.3 9.9-18.9 9.9zm-86.7-84.8c-4.7 5.6-9.5 11.6-11 18.7-1.5 7.2-1.1 14.7-1.1 22.1 0 7.4-.7 15.1-4.1 21.6-3.4 6.3-9.3 11.2-16.2 13.2-6.9 2-14.5 1.1-20.7-2.4-6-3.4-11.2-9.2-18.1-9.1 4-12.7 17.9-21.1 30.9-18.4 10 2.1 20.6 5.7 22.3-8.4.5-3.9.1-7.8.4-11.7.9-12.2 9-23.7 20.2-28.6-1 1-1.8 2-2.6 3z"/><path d="M272.5 76.6c6.9-9.9 13.2-18.7 18.9-26.3s10.9-14.3 15.7-20c4.8-5.7 9.3-10.5 13.4-14.3 4.1-3.9 8.2-7 12.1-9.3 3.9-2.4 7.8-4 11.7-5 3.9-1 7.9-1.5 12.2-1.5 10.1 0 15.2 3.2 15.2 9.7 0 .9-.1 1.9-.2 3-.2 1.2-.4 2.3-.9 3.4-.4 1.1-1 2-1.8 2.8-.8.8-1.7 1.2-2.9 1.2-.9 0-1.8-.4-3-1.3-1.1-.8-2.4-1.8-3.9-2.8-1.5-1-3.2-2-5.1-2.9-1.9-.9-4.1-1.3-6.5-1.3-2.6 0-5.6 1.1-9 3.2-3.4 2.2-7 5.1-10.9 8.8-3.9 3.7-8 8-12.2 12.9-4.2 4.9-8.5 10.1-12.8 15.6 11.6 26.5 21.8 49.4 30.7 68.8 8.9 19.4 16.9 35.5 24.3 48.2 7.3 12.7 14.1 22.2 20.2 28.4 6.2 6.2 12.4 9.3 18.7 9.3 1.1 0 2.2-.2 3.3-.5 1.1-.3 2-.7 2.9-1 1-.4 2-.9 3-1.5l2.4 4.5c-1.3.8-3.1 1.7-5.4 2.8-2.3 1.1-5 2.1-8.1 3.1-3.1 1-6.6 1.8-10.4 2.5-3.8.7-7.9 1-12.2 1-6 0-11.5-.9-16.6-2.8-5.1-1.9-10.1-4.9-14.9-9-4.8-4.1-9.6-9.6-14.3-16.2-4.7-6.7-9.6-14.9-14.6-24.5-5.1-9.7-10.4-20.9-16.1-33.8-5.6-12.8-11.8-27.5-18.5-44.1l-4.4 6.6v71.6c0 6-1.6 10.3-4.7 13-3.1 2.7-7.9 4.1-14.3 4.1-6.5 0-11.3-1.4-14.4-4.1-3.1-2.7-4.6-7-4.6-13V26c0-1.7-.2-3.1-.6-4.1-.4-1-.9-1.8-1.6-2.4-.7-.6-1.5-1-2.5-1.2-1-.2-2-.3-3.2-.3-1.7 0-3.8.3-6.3.8s-5.2 1.4-7.9 2.4c-2.8 1.1-5.6 2.4-8.4 4-2.8 1.6-5.3 3.4-7.5 5.4-2.2 2-4 4.3-5.4 6.7-1.4 2.5-2.1 5.1-2.1 8 0 2.5.3 4.4 1 5.9s1.4 2.6 2.3 3.3c.9.7 1.7 1.2 2.6 1.4.9.2 1.5.3 1.9.3 1.9 0 3.5-.3 4.8-1 1.2-.7 2.4-1.4 3.4-2.1 1-.7 2-1.4 2.8-2.1.9-.7 1.9-1 3.1-1 .9 0 1.9.2 3 .6 1 .4 2 1.1 2.9 2 .9.9 1.6 2.1 2.3 3.7s.9 3.3.9 5.5c0 3.1-.6 5.8-1.8 8-1.2 2.2-2.7 4.1-4.6 5.6-1.9 1.5-4.1 2.6-6.5 3.4-2.4.7-4.9 1.1-7.3 1.1-3.7 0-7.1-.6-10-1.9-3-1.3-5.5-3-7.6-5.3-2.1-2.2-3.7-4.9-4.8-7.9-1.1-3-1.6-6.2-1.6-9.6 0-5.3 1-10.2 2.9-14.7 1.9-4.4 4.6-8.5 7.9-12 3.4-3.6 7.3-6.7 11.8-9.3 4.5-2.7 9.4-4.9 14.7-6.7 5.3-1.8 10.8-3.1 16.5-4 5.7-.9 11.4-1.3 17.2-1.3 6.3 0 11.3.6 14.8 1.8 3.5 1.2 6.1 2.7 7.8 4.4 1.7 1.7 2.6 3.5 3 5.3.3 1.9.5 3.4.5 4.6v53.3z"/><path d="M421.4 84.9c2.9-4.5 6.1-8.5 9.4-12.2 1.4-1.5 2.9-3.1 4.5-4.5 1.6-1.5 3.3-2.8 5-3.9 1.7-1.2 3.5-2.1 5.4-2.8 1.9-.7 3.7-1 5.6-1 3.9 0 7 1.2 9.3 3.5 2.2 2.4 3.4 5.7 3.4 9.9 0 2.6-.2 5.2-.6 7.6-.4 2.4-1.3 5.4-2.5 8.9h-3.2c-.5-2.4-1.5-4.4-3.3-6-1.7-1.6-4.2-2.4-7.4-2.4-2.4 0-4.8.4-7.1 1.3s-4.6 2-6.8 3.3c-2.2 1.3-4.3 2.7-6.3 4.3-2 1.5-3.8 3-5.4 4.4v75.3c0 1-.2 2.2-.5 3.6s-1.1 2.7-2.3 3.9c-1.2 1.2-3 2.3-5.3 3.2-2.4.9-5.6 1.3-9.7 1.3s-7.3-.5-9.7-1.5c-2.4-1-4.2-2.1-5.4-3.4-1.2-1.3-2-2.7-2.3-4.1-.3-1.4-.5-2.5-.5-3.4V80.9c0-2.2-.5-4.2-1.6-5.9-1-1.7-2.8-2.5-5.3-2.5-1.3 0-2.4.2-3.4.7-.9.5-1.9 1.1-3 2l-2.4-2.9c1.8-1.5 3.8-2.9 6-4.4 2.2-1.4 4.6-2.7 7.1-3.8 2.6-1.1 5.3-2 8.2-2.7 2.9-.7 6-1 9.3-1 3.3 0 6.2.4 8.5 1.3 2.4.9 4.3 2.1 5.8 3.5s2.7 3 3.5 4.8c.9 1.8 1.5 3.6 1.9 5.4.4 1.8.7 3.6.8 5.2.3 1.8.3 3.2.3 4.3zm82.5 42.8c0 2.5.4 5.2 1.1 8.1.7 2.9 1.8 5.8 3.2 8.8 1.4 2.9 3.1 5.7 5.2 8.4 2 2.7 4.4 5 7.1 7.1 2.7 2.1 5.6 3.8 8.9 5 3.2 1.2 6.8 1.9 10.7 1.9 2.7 0 5.2-.3 7.5-.9 2.3-.6 4.5-1.5 6.5-2.6s3.9-2.3 5.8-3.8c1.9-1.4 3.7-3 5.6-4.6l2.9 2.8c-1.8 2.4-4.1 5-6.8 7.9-2.8 2.9-6.2 5.6-10.1 8.1-3.9 2.5-8.6 4.6-13.8 6.3-5.3 1.7-11.3 2.5-18 2.5-6.7 0-13.3-1.2-19.7-3.7-6.4-2.4-12.1-6.1-17-11-5-4.9-8.9-10.9-11.9-18.2-3-7.3-4.5-15.8-4.5-25.5 0-7 .9-13.5 2.7-19.4 1.8-5.9 4.2-11.2 7.3-15.9 3.1-4.7 6.6-8.9 10.7-12.4 4.1-3.6 8.3-6.5 12.8-8.9 4.5-2.4 9.1-4.1 13.8-5.3 4.7-1.2 9.2-1.8 13.5-1.8 5.7 0 10.7.6 15 1.9 4.3 1.2 7.8 2.9 10.6 5s4.9 4.5 6.3 7.3c1.4 2.7 2.1 5.6 2.1 8.6 0 3.6-1 6.9-3.1 9.8-2.1 2.9-4.9 5.4-8.4 7.6l-46 26.9zm23.3-23.6c1-.6 1.8-1.2 2.5-1.8.7-.6 1.2-1.3 1.6-2.1.4-.8.7-1.8.9-3 .2-1.2.3-2.7.3-4.5 0-1.9-.2-4.1-.6-6.4-.4-2.4-1.1-4.6-2.1-6.7-1-2.1-2.3-3.8-3.8-5.2-1.5-1.4-3.4-2.1-5.6-2.1-2.8 0-5.2.8-7.1 2.5-2 1.7-3.6 3.8-4.9 6.4-1.3 2.6-2.3 5.6-3 9-.7 3.4-1.3 6.8-1.7 10.2-.4 3.4-.6 6.7-.7 9.8-.1 3.1-.1 5.8-.1 7.9l24.3-14zm84.4 23.6c0 2.5.4 5.2 1.1 8.1.7 2.9 1.8 5.8 3.2 8.8 1.4 2.9 3.1 5.7 5.2 8.4 2 2.7 4.4 5 7.1 7.1 2.7 2.1 5.6 3.8 8.9 5 3.2 1.2 6.8 1.9 10.7 1.9 2.7 0 5.2-.3 7.5-.9 2.3-.6 4.5-1.5 6.5-2.6s3.9-2.3 5.8-3.8c1.9-1.4 3.7-3 5.6-4.6l2.9 2.8c-1.8 2.4-4.1 5-6.8 7.9-2.8 2.9-6.2 5.6-10.1 8.1-3.9 2.5-8.6 4.6-13.8 6.3-5.3 1.7-11.3 2.5-18 2.5-6.7 0-13.3-1.2-19.7-3.7-6.4-2.4-12.1-6.1-17-11-5-4.9-8.9-10.9-11.9-18.2-3-7.3-4.5-15.8-4.5-25.5 0-7 .9-13.5 2.7-19.4 1.8-5.9 4.2-11.2 7.3-15.9 3.1-4.7 6.6-8.9 10.7-12.4 4.1-3.6 8.3-6.5 12.8-8.9 4.5-2.4 9.1-4.1 13.8-5.3 4.7-1.2 9.2-1.8 13.5-1.8 5.7 0 10.7.6 15 1.9 4.3 1.2 7.8 2.9 10.6 5s4.9 4.5 6.3 7.3c1.4 2.7 2.1 5.6 2.1 8.6 0 3.6-1 6.9-3.1 9.8-2.1 2.9-4.9 5.4-8.4 7.6l-46 26.9zm23.3-23.6c1-.6 1.8-1.2 2.5-1.8.7-.6 1.2-1.3 1.6-2.1.4-.8.7-1.8.9-3 .2-1.2.3-2.7.3-4.5 0-1.9-.2-4.1-.6-6.4-.4-2.4-1.1-4.6-2.1-6.7-1-2.1-2.3-3.8-3.8-5.2-1.5-1.4-3.4-2.1-5.6-2.1-2.8 0-5.2.8-7.1 2.5-2 1.7-3.6 3.8-4.9 6.4-1.3 2.6-2.3 5.6-3 9-.7 3.4-1.3 6.8-1.7 10.2-.4 3.4-.6 6.7-.7 9.8-.1 3.1-.1 5.8-.1 7.9l24.3-14zm53.6-21.8c-.5-3.1-1.2-5.5-2.3-7.2-1-1.7-2.8-2.6-5.3-2.6-1.3 0-2.5.2-3.4.7-1 .5-2 1.1-3.1 2l-2.3-2.9c1.8-1.5 3.8-2.9 6-4.4 2.2-1.4 4.6-2.7 7.1-3.8 2.6-1.1 5.3-2 8.2-2.7s6-1 9.3-1c4.6 0 8.4.8 11.3 2.4 2.9 1.6 5.1 3.6 6.8 5.9 1.7 2.4 2.8 4.9 3.5 7.6.7 2.7 1.2 5.1 1.5 7.3 2.9 23.4 6.1 41.2 9.6 53.3 3.6 12.1 7.8 18.1 12.7 18.1 2.7 0 5.3-1.5 7.8-4.4 2.5-2.9 4.7-7 6.6-12.1 1.9-5.1 3.4-11.1 4.6-17.9 1.2-6.8 1.7-14.1 1.7-21.8 0-5.1-.3-9.4-1-12.9s-1.5-6.5-2.3-8.9c-.9-2.4-1.6-4.4-2.3-6-.7-1.6-1-3-1-4.2 0-1.2.5-2.1 1.4-2.9.9-.8 2-1.4 3.3-2 1.3-.5 2.6-.9 3.9-1.2 1.4-.2 2.5-.3 3.3-.3 2.2 0 3.9.3 4.9.9 1 .6 1.8 1.8 2.4 3.6.7 2.2 1.2 5.2 1.5 8.9.3 3.7.4 7.6.4 11.8 0 6-.4 12.5-1.2 19.6-.8 7.1-2 14.3-3.7 21.5-1.7 7.2-3.8 14.2-6.3 20.9-2.6 6.7-5.6 12.7-9.1 17.9-3.5 5.2-7.5 9.4-12 12.5-4.4 3.1-9.4 4.7-14.9 4.7-6.4 0-12-1.9-16.7-5.6-4.7-3.7-8.7-8.5-12-14.5-3.3-6-6-12.6-8.2-20.1-2.2-7.4-3.9-14.9-5.3-22.3-1.4-7.5-2.4-14.5-3.2-21.2-.8-6.6-1.5-12.2-2.2-16.7zm148-12.3c-2.6 0-5.1.3-7.3.9-2.2.6-4.2 1.4-5.8 2.3-1.6.9-2.9 2-3.8 3.1-.9 1.1-1.4 2.2-1.4 3.2 0 1.2.6 2 1.8 2.5 1.2.5 2.5 1.1 4 1.7 1.5.7 2.8 1.6 4 2.8 1.2 1.2 1.8 3 1.8 5.5 0 1.6-.3 3.1-1 4.5s-1.5 2.6-2.7 3.6c-1.1 1-2.4 1.9-3.9 2.4-1.5.6-3.1.9-4.7.9-4.3 0-7.8-1.5-10.5-4.4-2.7-2.9-4-6.8-4-11.7 0-4.7 1.2-8.8 3.7-12.1 2.5-3.4 5.7-6.1 9.7-8.3 4-2.2 8.5-3.8 13.5-4.8s10.1-1.6 15.1-1.6c6 0 11.8.7 17.3 2s10.3 3.4 14.6 6.3c4.2 2.9 7.6 6.5 10.1 10.9s3.8 9.7 3.8 16v65.6c0 .7 0 1.5.1 2.3.1.9.3 1.6.6 2.3.3.7.8 1.3 1.4 1.7.6.5 1.5.7 2.7.7 1.4 0 2.7-.5 3.9-1.6 1.2-1 2.3-2.1 3.2-3.2l2.9 2.4c-1.2 1.6-2.6 3.4-4.2 5.3s-3.6 3.8-5.9 5.5c-2.3 1.7-5 3.1-8.1 4.3-3.1 1.2-6.6 1.7-10.6 1.7-4.9 0-9.2-1.5-13-4.4-3.8-2.9-6.3-7.4-7.4-13.4-2.5 3.3-5 6.1-7.7 8.4-2.7 2.2-5.4 4.1-8.2 5.5s-5.6 2.4-8.4 3c-2.8.6-5.7.9-8.5.9-3.7 0-7.3-.6-10.8-1.7-3.5-1.2-6.6-3-9.3-5.5-2.7-2.5-5-5.8-6.6-9.8-1.7-4-2.5-8.9-2.5-14.7 0-7 1.4-12.8 4.2-17.3 2.8-4.5 6.4-8.3 11-11.3 4.5-3.1 9.7-5.7 15.4-7.8 5.8-2.2 11.7-4.4 17.7-6.8 4.5-1.8 7.8-4.4 9.8-7.9 2-3.5 3.1-7.1 3.1-10.9 0-5.7-1.7-10.3-5-13.8-3.7-3.5-8.3-5.2-14.1-5.2zm18.4 50.8c0-1.9-.6-3.4-1.9-4.4-1.2-1-2.8-1.5-4.8-1.5-2.7 0-5.3.6-7.7 1.9-2.4 1.2-4.6 3.1-6.4 5.5-1.9 2.4-3.3 5.4-4.4 8.9-1.1 3.5-1.6 7.6-1.6 12.2 0 4.5.3 8.2 1 11.1.7 2.9 1.5 5.3 2.7 7 1.1 1.7 2.4 3 3.9 3.7 1.5.7 3 1 4.6 1 2 0 3.9-.5 5.7-1.6 1.8-1 3.3-2.4 4.6-4 1.3-1.6 2.4-3.4 3.1-5.5s1.2-4 1.2-6v-28.3zM580.4 242.5h-5.3v-39.4h15.2c12.2 0 17.4 5.5 17.4 19.6 0 11.8-3.6 19.8-17.3 19.8h-6.1v-4.6h5.8c9.3 0 12.1-3.8 12.1-15.1 0-11.8-3.1-15-12.4-15h-9.4v34.7zm57.2-8.8h4.9c-.4 4.4-2.7 9.6-12.6 9.6-9.6 0-13.2-4.8-13.2-14.6s3.7-15.5 13.5-15.5c9.4 0 12.6 5.3 12.6 16.5h-17.1v-4.1h12.2c-.4-5.1-1.6-8.3-7.7-8.3-6 0-8.3 2.3-8.3 11.1 0 7.9 2 10.6 8.6 10.6 4.2.1 6.6-1.1 7.1-5.3zm20.1 8.8h-4.8v-39.4h4.8v39.4zm13.9-39.7c2.3 0 3.1.8 3.1 3.1s-.8 3.1-3.1 3.1-3.1-.8-3.1-3.1.8-3.1 3.1-3.1zm-2.4 39.7v-28.6h4.8v28.6h-4.8zm23.7 0c-4.4-9.6-8-19.1-10.6-28.6h5.4c1.9 7.7 4.4 15.4 7.7 23.2 3.5-7.7 6.1-15.4 8.1-23.2h5.2c-2.7 9.6-6.3 19.1-10.8 28.6h-5zm43.6-8.8h4.9c-.4 4.4-2.7 9.6-12.6 9.6-9.6 0-13.2-4.8-13.2-14.6s3.7-15.5 13.5-15.5c9.4 0 12.6 5.3 12.6 16.5h-17.1v-4.1h12.2c-.4-5.1-1.6-8.3-7.7-8.3-6 0-8.3 2.3-8.3 11.1 0 7.9 2 10.6 8.6 10.6 4.2.1 6.5-1.1 7.1-5.3zm20-16.3c1.8-2.9 3.8-4.2 7.3-4.2 1.4 0 2.1.3 2.1.3v5.1s-.9-.3-2.6-.3c-4.7 0-6.5 2.6-6.5 8.2v16.1H752V214h4.5v3.4zm20-14.6c2.3 0 3.1.8 3.1 3.1s-.8 3.1-3.1 3.1-3.1-.8-3.1-3.1c.1-2.3.8-3.1 3.1-3.1zm-2.4 39.7v-28.6h4.8v28.6h-4.8zm20.7-25.1c1.6-2.3 4.1-4.3 9.4-4.3 6.4 0 9.4 3 9.4 10.5v18.8h-4.8V225c0-5.6-.6-7.7-6-7.7-4.5 0-7.6 1.5-7.6 9.6v15.6h-4.8v-28.6h4.4v3.5zm41.7 21.4c1.3 0 2.5-.1 3.5-.5v4.1c-1.2.3-2.5.5-4.2.5-9.8 0-12.4-7.3-12.4-15.3 0-9.3 3.6-14.6 11.9-14.6 5 0 6.8 1.9 8.6 4.1v-3.3h4.8v25.8c0 8.8-1.5 14.7-13 14.7-6.9 0-10.7-2.3-11.3-8.6h4.8c.7 3.8 2.6 4.4 6.3 4.4 8.2 0 8.3-3.5 8.3-9.8v-12.4c0-7.6-1.8-10.8-7.6-10.8-6.4 0-7.7 3.8-7.7 10.7-.1 7.9 1.6 11 8 11zm43.2 3.7v-39.4h5.3v39.4h-5.3zm9.1-18.5v-4.6h16.7v-16.3h5.3v39.4h-5.3V224h-16.7zm52.3-1.7c0-3.4-1-5.1-6.5-5.1-5.8 0-6.3 1.9-7 5.2h-4.8c.5-7.1 4.2-9.3 12-9.3 6.4 0 11.1 1.5 11.1 8v21.4h-4.8v-3.1c-2.4 2.3-5.1 3.8-10.1 3.8-6.2 0-9.3-2.5-9.3-7.7 0-3.8 1.6-8.3 8.8-9.3l6.7-.9v4l-4.3.6c-4.4.6-6.2 1.8-6.2 5 0 3.4 1.9 4.3 5.5 4.3 5.5 0 8.8-2.1 8.8-7.4v-9.5zm21 31.4h-4.8v-39.8h4.8v3.4c1.6-2 3.2-4.2 8.5-4.2 8.2 0 11.9 5.2 11.9 14.7 0 8.5-3 15.4-12.6 15.4-1.4 0-2.7-.2-3.8-.5v-4.2c.9.4 2.1.5 3.4.5 6.2 0 8-3.1 8-11 0-6.7-1.4-10.8-7.6-10.8-6 0-7.7 3.9-7.7 11.3v25.2zm34.6 0h-4.8v-39.8h4.8v3.4c1.6-2 3.2-4.2 8.5-4.2 8.2 0 11.9 5.2 11.9 14.7 0 8.5-3 15.4-12.6 15.4-1.4 0-2.7-.2-3.8-.5v-4.2c.9.4 2.1.5 3.4.5 6.2 0 8-3.1 8-11 0-6.7-1.4-10.8-7.6-10.8-6 0-7.7 3.9-7.7 11.3v25.2zm32.6-50.9c2.3 0 3.1.8 3.1 3.1s-.8 3.1-3.1 3.1-3.1-.8-3.1-3.1.8-3.1 3.1-3.1zm-2.4 39.7v-28.6h4.8v28.6h-4.8zm20.7-25.1c1.6-2.3 4.1-4.3 9.4-4.3 6.4 0 9.4 3 9.4 10.5v18.8h-4.8V225c0-5.6-.6-7.7-6-7.7-4.5 0-7.6 1.5-7.6 9.6v15.6h-4.8v-28.6h4.4v3.5zm49.7 16.3h4.9c-.4 4.4-2.7 9.6-12.6 9.6-9.6 0-13.2-4.8-13.2-14.6s3.7-15.5 13.5-15.5c9.4 0 12.6 5.3 12.6 16.5h-17.1v-4.1h12.2c-.4-5.1-1.6-8.3-7.7-8.3-6 0-8.3 2.3-8.3 11.1 0 7.9 2 10.6 8.6 10.6 4.2.1 6.5-1.1 7.1-5.3zm31.1-11.9c-.2-3.5-1.2-4.5-6.2-4.5-3.4 0-5.9.4-5.9 3.7 0 2.4 1.3 3.2 4.8 4.1l4.7 1.2c5.5 1.4 8.6 3.1 8.6 8.2 0 5.9-4 8.8-12 8.8-9.7 0-11.3-4.2-11.9-9.7h4.8c.4 4.3 1.5 5.5 7.1 5.5 4 0 6.9-.5 6.9-4 0-2.1-1.3-3.4-5.1-4.4l-5.1-1.3c-5.9-1.5-8-3.6-8-7.9 0-6 4.4-8.3 11-8.3 9.3 0 10.7 4.7 11 8.7h-4.7zm31.6 0c-.2-3.5-1.2-4.5-6.2-4.5-3.4 0-5.9.4-5.9 3.7 0 2.4 1.3 3.2 4.8 4.1l4.7 1.2c5.5 1.4 8.6 3.1 8.6 8.2 0 5.9-4 8.8-12 8.8-9.7 0-11.3-4.2-11.9-9.7h4.8c.4 4.3 1.5 5.5 7.1 5.5 4 0 6.9-.5 6.9-4 0-2.1-1.3-3.4-5.1-4.4l-5.1-1.3c-5.9-1.5-8-3.6-8-7.9 0-6 4.4-8.3 11-8.3 9.3 0 10.7 4.7 11 8.7h-4.7z"/></svg>